:SAMPLES-PER-SECOND 30
:FULLY-SPECIFIED
:DEGREES
396
root  20.0945 36.8571 -29.315 -47.1359 -84.827 40.5402
RightUpLeg  -4.65291 -7.39785 -3.59275
RightLeg  55.9343 2.23699 3.13247
RightFoot  -18.2754 0.308143 7.10126
RightToes  -8.14909e-010 0 -3.6325e-017
Spine  11.3869 3.40989 4.6136
Spine1  4.12221 5.8533 -8.953
HEad  -20.0049 47.0495 -17.3897
LeftShoulder1  -0.760544 5.51363 -31.6808
LeftArm  3.03257 12.4558 -39.8937
LeftForeArm  21.7653 -24.4237 -4.01784
LeftHand  0.0359935 7.25388 4.33566
RightShoulder  -0.858148 -5.94271 28.5907
RightArm  18.5671 -2.28448 48.187
RightForeArm  8.7694 22.2314 4.43285
RightHand  -0.205214 4.05774 -2.80389
LeftUpLeg  -22.4143 2.65068 -6.96407
LeftLeg  37.4361 -2.67101 -1.81773
LeftFoot  -2.28474 -0.739742 9.49846
LeftToes  1.648e-009 -9.21574e-011 2.55256e-011
397
root  19.6253 37.152 -29.621 -33.1913 -82.6929 26.9575
RightUpLeg  -6.49179 -7.72276 -3.82161
RightLeg  57.4075 2.15914 3.1934
RightFoot  -18.6287 0.3126 6.88204
RightToes  -8.14909e-010 0 -3.6325e-017
Spine  11.0591 3.49665 4.47405
Spine1  4.50444 5.95606 -8.83532
HEad  -22.5419 51.9902 -20.4546
LeftShoulder1  -0.838784 5.72172 -31.6525
LeftArm  1.59255 11.8366 -40.0775
LeftForeArm  23.0375 -28.4615 -4.89857
LeftHand  0.0111191 6.30148 5.02072
RightShoulder  -0.875786 -5.96075 29.0522
RightArm  21.8563 -3.44655 47.1566
RightForeArm  9.65314 21.6976 4.43731
RightHand  -0.13064 3.68929 -1.85919
LeftUpLeg  -21.4328 0.335282 -6.74257
LeftLeg  36.1393 -3.16711 -2.11088
LeftFoot  -1.52821 -0.716095 8.44985
LeftToes  1.648e-009 -9.21574e-011 2.55256e-011
398
root  19.252 37.5394 -29.9833 -24.6551 -80.2934 18.4431
RightUpLeg  -7.45219 -6.2607 -3.72698
RightLeg  56.6812 2.13209 3.05823
RightFoot  -18.4244 0.280592 6.54192
RightToes  -8.14909e-010 0 -3.6325e-017
Spine  11.3995 3.47486 4.8085
Spine1  4.30731 6.07352 -9.2777
HEad  -23.8765 55.4313 -21.8789
LeftShoulder1  -0.837064 5.7349 -31.3557
LeftArm  0.77106 11.8471 -39.9099
LeftForeArm  23.3182 -33.1281 -6.00326
LeftHand  0.0121395 6.14786 5.85498
RightShoulder  -0.8768 -5.94328 29.3425
RightArm  24.2884 -5.64984 46.527
RightForeArm  12.1204 21.6168 4.36532
RightHand  0.0501088 2.48682 0.490793
LeftUpLeg  -20.0573 -1.62603 -6.11581
LeftLeg  34.2967 -4.34241 -2.81983
LeftFoot  -0.0960106 -0.684335 6.94553
LeftToes  1.648e-009 -9.21574e-011 2.55256e-011
399
root  18.9257 37.8999 -30.3502 -19.1696 -77.673 12.9646
RightUpLeg  -7.89882 -3.4832 -3.70776
RightLeg  54.6413 2.13753 2.83517
RightFoot  -18.7085 0.322796 6.97378
RightToes  -8.14909e-010 0 -3.6325e-017
Spine  11.4649 3.37382 5.4672
Spine1  4.24827 6.17597 -10.08
HEad  -26.5217 60.1048 -23.9508
LeftShoulder1  -0.918969 5.96127 -31.2236
LeftArm  0.254262 11.8671 -39.5959
LeftForeArm  25.6202 -37.8763 -7.13037
LeftHand  2.87876e-005 5.94981 5.4309
RightShoulder  -0.783984 -5.70427 28.9988
RightArm  24.4042 -8.69722 46.6411
RightForeArm  13.34 21.3705 4.33728
RightHand  0.11881 2.8696 1.45573
LeftUpLeg  -18.804 -2.76297 -5.39994
LeftLeg  32.4942 -6.23569 -3.90736
LeftFoot  1.2426 -0.638616 5.71782
LeftToes  1.648e-009 -9.21574e-011 2.55256e-011
400
root  18.6296 38.2515 -30.748 -15.2042 -74.3275 9.06653
RightUpLeg  -7.78576 0.0384017 -3.90483
RightLeg  51.6402 2.26597 2.69614
RightFoot  -18.4951 0.27368 6.37819
RightToes  -8.14909e-010 0 -3.6325e-017
Spine  10.7922 3.34739 5.86604
Spine1  4.93934 6.25214 -10.2917
HEad  -28.3963 63.4551 -25.7888
LeftShoulder1  -0.948201 6.03683 -31.2597
LeftArm  0.176304 11.3005 -39.5968
LeftForeArm  27.6998 -41.664 -8.13471
LeftHand  0.000495366 5.94082 5.55019
RightShoulder  -0.791682 -5.72427 29.023
RightArm  24.8224 -11.2984 45.9712
RightForeArm  13.1396 21.291 4.36131
RightHand  0.11227 2.53928 1.44375
LeftUpLeg  -17.5229 -3.85823 -4.77464
LeftLeg  30.2587 -8.65558 -5.08013
LeftFoot  2.81337 -0.617998 4.83763
LeftToes  1.648e-009 -9.21574e-011 2.55256e-011
401
root  18.3874 38.4793 -31.1838 -12.6503 -70.1406 6.6311
RightUpLeg  -7.19692 3.98358 -4.30168
RightLeg  48.2158 2.83067 3.06106
RightFoot  -19.0077 0.302375 6.43491
RightToes  -8.14909e-010 0 -3.6325e-017
Spine  10.7715 3.1011 5.76192
Spine1  4.44168 5.88398 -10.1483
HEad  -29.1397 64.7777 -27.0251
LeftShoulder1  -0.995407 6.1537 -31.3912
LeftArm  0.0498423 11.1817 -39.6461
LeftForeArm  29.4097 -44.7447 -9.05297
LeftHand  -0.0348316 5.11988 5.46388
RightShoulder  -0.819344 -5.79354 29.1651
RightArm  24.6937 -14.2519 44.9609
RightForeArm  12.9968 21.6209 4.32155
RightHand  0.0618582 2.59148 0.684631
LeftUpLeg  -16.6875 -5.38096 -4.33735
LeftLeg  28.4684 -11.3939 -6.28984
LeftFoot  4.03041 -0.567272 4.01765
LeftToes  1.648e-009 -9.21574e-011 2.55256e-011
402
root  18.1858 38.6069 -31.6625 -10.675 -65.6207 4.44525
RightUpLeg  -5.85763 9.08894 -4.14011
RightLeg  44.2454 3.96352 3.79757
RightFoot  -19.1244 0.306138 6.37122
RightToes  -8.14909e-010 0 -3.6325e-017
Spine  10.8853 2.83903 5.6721
Spine1  4.23542 5.45605 -9.65397
HEad  -31.9926 66.6729 -29.7961
LeftShoulder1  -1.03055 6.26077 -31.2007
LeftArm  -0.416162 11.1397 -40.2398
LeftForeArm  30.0086 -47.2175 -9.91686
LeftHand  -0.054469 4.67054 5.45957
RightShoulder  -0.780729 -5.70295 28.8692
RightArm  24.3135 -16.9403 44.0934
RightForeArm  13.0617 22.0309 4.27396
RightHand  0.0925288 3.2427 1.01928
LeftUpLeg  -15.9993 -6.37103 -3.76973
LeftLeg  27.334 -14.7953 -7.83868
LeftFoot  4.86917 -0.53427 3.5409
LeftToes  1.648e-009 -9.21574e-011 2.55256e-011
403
root  18.0515 38.6214 -32.1928 -9.5907 -60.6019 3.51947
RightUpLeg  -4.39216 14.6884 -4.16834
RightLeg  39.8421 6.13563 5.20785
RightFoot  -19.7374 0.417822 7.51504
RightToes  -8.14909e-010 0 -3.6325e-017
Spine  10.4882 2.63581 5.49125
Spine1  4.68984 5.19565 -9.60513
HEad  -35.2816 66.7316 -33.1377
LeftShoulder1  -1.03604 6.28516 -31.072
LeftArm  -0.0762974 10.1575 -40.8529
LeftForeArm  30.3796 -48.6862 -10.4808
LeftHand  -0.0704188 4.33112 5.82228
RightShoulder  -0.778456 -5.6973 28.854
RightArm  23.6322 -18.8341 43.3455
RightForeArm  13.1036 21.9745 4.26303
RightHand  0.0405919 3.15777 0.344712
LeftUpLeg  -16.1137 -8.11649 -3.57134
LeftLeg  26.5853 -17.8075 -9.14092
LeftFoot  5.65406 -0.524573 3.28034
LeftToes  1.648e-009 -9.21574e-011 2.55256e-011
404
root  17.9845 38.5666 -32.7434 -8.48602 -55.074 2.5849
RightUpLeg  -2.9449 20.3423 -3.69124
RightLeg  35.6927 7.63006 5.59901
RightFoot  -18.7073 0.250595 5.83532
RightToes  -8.14909e-010 0 -3.6325e-017
Spine  10.5138 2.26026 5.72995
Spine1  4.55744 4.79763 -9.43552
HEad  -37.6757 66.1834 -35.1284
LeftShoulder1  -1.10323 6.46557 -31.0649
LeftArm  -0.134555 9.57685 -41.4681
LeftForeArm  31.3155 -50.0947 -11.0039
LeftHand  -0.0915645 3.7321 5.2684
RightShoulder  -0.799093 -5.74613 29.012
RightArm  23.8513 -19.9843 42.3453
RightForeArm  13.6844 21.5554 4.26621
RightHand  0.0928235 2.09378 1.25919
LeftUpLeg  -16.6395 -10.5745 -3.33522
LeftLeg  26.161 -20.5139 -10.3133
LeftFoot  6.16749 -0.464222 2.76979
LeftToes  1.648e-009 -9.21574e-011 2.55256e-011
405
root  18.0169 38.4292 -33.3568 -7.71838 -49.3702 2.45001
RightUpLeg  -1.85955 24.2499 -3.79316
RightLeg  32.056 9.84528 6.3548
RightFoot  -17.3159 0.111535 4.65601
RightToes  -8.14909e-010 0 -3.6325e-017
Spine  10.7611 2.07446 5.77718
Spine1  4.06699 4.5309 -9.18503
HEad  -36.3991 64.8044 -33.9768
LeftShoulder1  -1.0806 6.37994 -31.3899
LeftArm  0.46607 9.03424 -41.5321
LeftForeArm  31.187 -51.1065 -11.4687
LeftHand  -0.101677 3.70478 5.9656
RightShoulder  -0.754674 -5.62628 28.9108
RightArm  23.1011 -20.565 41.7441
RightForeArm  13.8354 20.1122 4.45079
RightHand  0.0476077 2.44498 0.506832
LeftUpLeg  -17.7582 -13.8009 -3.36819
LeftLeg  25.5195 -22.9563 -11.1825
LeftFoot  6.63407 -0.366534 2.06262
LeftToes  1.648e-009 -9.21574e-011 2.55256e-011
406
root  18.169 38.2643 -34.0171 -7.23425 -43.4697 2.90906
RightUpLeg  -1.29525 23.5479 -4.62022
RightLeg  30.2628 11.596 7.01969
RightFoot  -20.2639 -0.0569909 0.975592
RightToes  -8.14909e-010 0 -3.6325e-017
Spine  11.0017 1.94002 6.30909
Spine1  4.06899 4.55083 -9.58609
HEad  -36.0463 62.3977 -33.613
LeftShoulder1  -0.995587 6.15404 -31.3901
LeftArm  0.782293 8.42706 -41.9461
LeftForeArm  31.7152 -51.9999 -11.8408
LeftHand  -0.117663 3.23335 5.62548
RightShoulder  -0.78139 -5.71416 28.7174
RightArm  21.3693 -20.1617 41.4682
RightForeArm  14.7038 18.1083 4.8428
RightHand  0.0413205 2.47922 0.412809
LeftUpLeg  -18.7935 -17.0298 -3.84168
LeftLeg  23.7472 -25.3677 -11.4272
LeftFoot  7.35219 -0.219562 1.0546
LeftToes  1.648e-009 -9.21574e-011 2.55256e-011
